<svg width="40" height="17" viewBox="0 0 40 17" fill="none" xmlns="http://www.w3.org/2000/svg">
<path opacity="0.2" d="M7.3064 2.39125C6.8364 2.95125 6.08765 3.395 5.34015 3.33C5.2414 2.575 5.6139 1.76625 6.0439 1.265C6.51265 0.69375 7.33265 0.28375 7.99765 0.25C8.0764 1.03875 7.7689 1.81375 7.30765 2.39125H7.3064ZM7.99015 3.47875C6.9039 3.4125 5.9714 4.1025 5.4564 4.1025C4.93015 4.1025 4.1414 3.51125 3.28265 3.53125C2.1689 3.545 1.12765 4.18125 0.561397 5.205C-0.617353 7.24125 0.255147 10.2563 1.38765 11.9163C1.9414 12.7362 2.6039 13.635 3.47765 13.61C4.3039 13.5763 4.6364 13.0637 5.63265 13.0637C6.6414 13.0637 6.92765 13.61 7.80765 13.59C8.7114 13.5763 9.2839 12.77 9.83765 11.95C10.4689 11.0188 10.7289 10.1063 10.7426 10.0613C10.7289 10.0413 8.9914 9.37125 8.9789 7.3525C8.96515 5.65875 10.3451 4.8525 10.4039 4.80625C9.6289 3.635 8.40515 3.51125 7.9889 3.48L7.99015 3.47875ZM14.2601 1.18625V13.505H16.1539V9.29375H18.7726C21.1614 9.29375 22.8414 7.63375 22.8414 5.2375C22.8414 2.83625 21.1951 1.1875 18.8376 1.1875L14.2601 1.18625ZM16.1539 2.80125H18.3351C19.9751 2.80125 20.9139 3.68625 20.9139 5.2425C20.9139 6.79875 19.9751 7.69125 18.3226 7.69125H16.1539V2.80125ZM26.2901 13.5963C27.4814 13.5963 28.5814 12.9912 29.0839 12.0262H29.1239V13.505H30.8739V7.37125C30.8739 5.60125 29.4689 4.45 27.3001 4.45C25.2951 4.45 23.8101 5.615 23.7589 7.21H25.4576C25.6014 6.44875 26.2914 5.95375 27.2489 5.95375C28.4076 5.95375 29.0526 6.5 29.0526 7.50375V8.18L26.6964 8.32375C24.4951 8.46 23.3101 9.365 23.3101 10.9475C23.3101 12.5425 24.5351 13.5975 26.2914 13.5975L26.2901 13.5963ZM26.8051 12.1375C25.7951 12.1375 25.1514 11.6488 25.1514 10.9012C25.1514 10.1263 25.7701 9.67 26.9476 9.5975L29.0514 9.4675V10.1637C29.0514 11.3175 28.0814 12.1375 26.7976 12.1375H26.8051ZM33.2114 16.8575C35.0526 16.8575 35.9201 16.1413 36.6751 13.9862L39.9951 4.5725H38.0751L35.8489 11.8438H35.8089L33.5826 4.5725H31.6039L34.8076 13.5375L34.6376 14.0837C34.3439 15.0025 33.8764 15.3587 33.0426 15.3587C32.8926 15.3587 32.6064 15.34 32.4889 15.3275V16.8063C32.5989 16.8375 33.0689 16.8512 33.2052 16.8512L33.2114 16.8575Z" fill="white"/>
</svg>
