<svg width="170" height="158" viewBox="0 0 170 158" fill="none" xmlns="http://www.w3.org/2000/svg">
<path d="M100 200C119.778 200 139.112 194.135 155.557 183.147C172.002 172.159 184.819 156.541 192.388 138.268C199.957 119.996 201.937 99.8893 198.079 80.4914C194.22 61.0934 184.696 43.2752 170.711 29.29C161.447 19.9751 150.427 12.5902 138.289 7.56264C126.152 2.53508 113.138 -0.0352646 100 0.00036541C44.8588 0.00036541 0 44.8589 0 100C0 126.522 10.5357 151.957 29.2894 170.711C48.0431 189.464 73.4786 200 100 200Z" fill="#E6E6E6"/>
<path d="M3.44836 99.9997C3.44699 80.9026 9.10891 62.234 19.7181 46.3549C30.3273 30.4758 45.4071 18.0995 63.0506 10.7911C80.694 3.48281 100.108 1.57076 118.839 5.2968C137.569 9.02283 154.773 18.2196 168.276 31.724C177.271 40.6687 184.402 51.309 189.255 63.0287C194.109 74.7485 196.589 87.3147 196.552 99.9997C196.552 153.234 153.245 196.551 100 196.551C74.3932 196.551 49.8348 186.379 31.7278 168.272C13.6208 150.165 3.44836 125.607 3.44836 99.9997Z" fill="#F6F6F6"/>
<path d="M100 7.43921C48.8796 7.43921 7.43811 48.8805 7.43811 100.001C7.43811 151.122 48.8796 192.563 100 192.563C151.121 192.563 192.563 151.122 192.563 100.001C192.563 48.8805 151.121 7.43921 100 7.43921Z" fill="#E6E6E6"/>
<path d="M100.001 159.125C88.3069 159.125 76.8758 155.657 67.1529 149.16C57.4299 142.664 49.8518 133.43 45.3768 122.626C40.9018 111.823 39.731 99.9349 42.0123 88.466C44.2936 76.9971 49.9247 66.4622 58.1934 58.1935C66.462 49.9249 76.997 44.2939 88.466 42.0125C99.935 39.7312 111.823 40.9021 122.626 45.377C133.43 49.852 142.664 57.4301 149.161 67.153C155.657 76.8759 159.125 88.3069 159.125 100.001C159.124 115.681 152.895 130.719 141.807 141.807C130.719 152.894 115.681 159.124 100.001 159.125Z" fill="#F6F6F6"/>
<path d="M44.6799 100H100.001V44.6797C85.3287 44.6797 71.2577 50.5081 60.883 60.8827C50.5084 71.2574 44.6799 85.3284 44.6799 100Z" fill="#E6E6E6"/>
<path d="M100 100.001V155.321C114.673 155.321 128.744 149.493 139.118 139.118C149.493 128.744 155.321 114.673 155.321 100.001H100Z" fill="#E6E6E6"/>
<path d="M56.5514 43.5902C54.5893 41.6833 51.5617 41.1109 48.7169 42.8729C49.1465 41.7002 49.1575 40.4149 48.7479 39.235C47.5238 37.0005 47.0962 36.7212 46.0858 35.8729C42.8168 33.1143 39.3754 35.4729 36.9168 38.404L25.0271 52.5729L43.7168 68.2557L56.2548 53.3143C59.1169 49.9005 59.5617 46.5143 56.5514 43.5902Z" fill="#F6F6F6"/>
<path d="M103.097 36.8559L109.514 19.8456V36.8559H114.393V12.4939H107.062L100.397 29.9352H100.469L93.8 12.4939H86.4724V36.8559H91.3517V19.8456L97.769 36.8559H103.097Z" fill="#F6F6F6"/>
<path d="M168.677 46.9944L159.494 59.9944L173.732 53.2358L177.501 57.8909L155.091 68.753L150.67 63.2461L159.484 50.3599L159.432 50.2944L144.991 56.2357L140.525 50.7633L155.808 31.1013L159.577 35.7565L150.008 48.2771L164.636 41.9978L168.677 46.9944Z" fill="#F6F6F6"/>
<path d="M39.5139 41.9103C40.3415 40.9241 42.2105 40.9655 43.4139 41.9758C44.7346 43.0827 44.7415 44.6551 43.8519 45.7138L36.7898 54.1378L32.3726 50.4206L39.5139 41.9103Z" fill="#E6E6E6"/>
<path d="M52.0688 51.839L44.6274 60.7079L39.9653 56.7907L47.4688 47.8493C48.3171 46.839 50.2067 46.5459 51.4791 47.6148C52.9205 48.8252 53.0654 50.6596 52.0757 51.839H52.0688Z" fill="#E6E6E6"/>
</svg>
