<svg width="20" height="20" viewBox="0 0 20 20" fill="none" xmlns="http://www.w3.org/2000/svg">
<path d="M1.5 0C0.671572 0 0 0.671574 0 1.5V18.5C0 19.3284 0.671574 20 1.5 20H12.7C12.8657 20 13 19.8657 13 19.7V18.3C13 18.1343 12.8657 18 12.7 18H2V2H12.7C12.8657 2 13 1.86569 13 1.7V0.3C13 0.134315 12.8657 0 12.7 0H1.5Z" fill="#262626"/>
<path d="M10.3888 12.9747L8.41412 11H19.6999C19.8656 11 19.9999 10.8657 19.9999 10.7V9.30001C19.9999 9.13433 19.8656 9.00001 19.6999 9.00001H8.41412L10.3888 7.02532C10.5646 6.84958 10.5646 6.56466 10.3888 6.38892L9.611 5.61111C9.43526 5.43537 9.15034 5.43537 8.9746 5.61111L4.93925 9.64646C4.74398 9.84172 4.74398 10.1583 4.93925 10.3536L8.9746 14.3889C9.15034 14.5647 9.43526 14.5647 9.611 14.3889L10.3888 13.6111C10.5646 13.4354 10.5646 13.1504 10.3888 12.9747Z" fill="#262626"/>
</svg>
