<svg width="11" height="21" viewBox="0 0 11 21" fill="none" xmlns="http://www.w3.org/2000/svg">
<path d="M2.26952 4.35753C2.26952 4.92454 2.26952 7.45534 2.26952 7.45534H0V11.2434H2.26952V21H6.93159V11.2437H10.0601C10.0601 11.2437 10.3531 9.42735 10.4951 7.44138C10.0879 7.44138 6.94922 7.44138 6.94922 7.44138C6.94922 7.44138 6.94922 5.23763 6.94922 4.85136C6.94922 4.46425 7.45753 3.94354 7.95993 3.94354C8.46138 3.94354 9.51974 3.94354 10.5 3.94354C10.5 3.42779 10.5 1.64579 10.5 1.35313e-08C9.19138 1.35313e-08 7.70261 1.35313e-08 7.04637 1.35313e-08C2.15428 -0.000261546 2.26952 3.79152 2.26952 4.35753Z" fill="#262626"/>
</svg>
