<svg width="41" height="16" viewBox="0 0 41 16" fill="none" xmlns="http://www.w3.org/2000/svg">
<path opacity="0.2" d="M40.9957 3.66657L35.7745 15.3328H34.1595L36.0995 11.2503L32.662 3.66531H34.3607L36.8482 9.47906H36.8807L39.2895 3.66531L40.9957 3.66657ZM19.3032 7.27406V12.0003H17.662V0.334065H22.0045C23.0353 0.305808 24.0391 0.665843 24.817 1.34282C25.5857 1.97407 26.0082 2.86656 25.9957 3.81031C26.001 4.28526 25.8975 4.75511 25.6932 5.18389C25.4889 5.61267 25.1892 5.989 24.817 6.28406C24.062 6.94781 23.1245 7.27406 22.0045 7.27406H19.3032ZM19.297 1.77282V5.84156H22.0445C22.6426 5.86302 23.2251 5.64789 23.6657 5.24281C24.0895 4.86531 24.3232 4.35032 24.3232 3.81657C24.3232 3.27657 24.0882 2.76157 23.6657 2.39032C23.4499 2.18494 23.1955 2.02448 22.9172 1.91826C22.6389 1.81204 22.3422 1.76217 22.0445 1.77157L19.297 1.77282ZM29.2832 3.66657C30.3245 3.66657 31.152 3.95907 31.757 4.53906C32.362 5.11906 32.662 5.91282 32.662 6.92157V11.7453H31.3082V10.6578H31.2495C30.6632 11.5503 29.8882 11.9991 28.9182 11.9991C28.0845 11.9991 27.3945 11.7453 26.8345 11.2303C26.5643 10.9911 26.3492 10.6962 26.2042 10.3657C26.0592 10.0353 25.9876 9.67735 25.9945 9.31657C25.9945 8.50907 26.287 7.86531 26.8795 7.38281C27.4657 6.90781 28.2532 6.66656 29.2357 6.66656C30.0757 6.66656 30.7657 6.82906 31.3057 7.14781V6.80906C31.3075 6.56316 31.2566 6.31973 31.1566 6.09509C31.0566 5.87044 30.9096 5.66979 30.7257 5.50657C30.3553 5.15978 29.8657 4.96868 29.3582 4.97282C28.5707 4.97282 27.9457 5.31782 27.4832 6.00782L26.2395 5.20032C26.9232 4.17782 27.9382 3.66407 29.2795 3.66407L29.2832 3.66657ZM27.4545 9.35031C27.4517 9.53555 27.4927 9.71883 27.5741 9.88522C27.6556 10.0516 27.7752 10.1964 27.9232 10.3078C28.2357 10.5616 28.627 10.6991 29.0232 10.6916C29.6157 10.6916 30.1882 10.4441 30.612 10.0078C31.0607 9.59156 31.3157 9.00531 31.3157 8.39281C30.8732 8.02781 30.2607 7.84532 29.4732 7.84532C28.8932 7.84532 28.4182 7.98907 28.0345 8.27532C27.6507 8.56781 27.4545 8.92031 27.4545 9.34906V9.35031ZM7.79947 0.334065C9.48246 0.313767 11.11 0.93553 12.3507 2.07281L10.4107 3.97407C9.70203 3.31656 8.76601 2.95945 7.79947 2.97781C6.956 2.98194 6.13478 3.24875 5.44995 3.74115C4.76512 4.23355 4.2507 4.92707 3.97822 5.72531C3.6919 6.55206 3.6919 7.45107 3.97822 8.27781C4.2507 9.07606 4.76512 9.76958 5.44995 10.262C6.13478 10.7544 6.956 11.0212 7.79947 11.0253C8.71697 11.0253 9.50572 10.7978 10.117 10.3941C10.4686 10.1651 10.77 9.86687 11.0027 9.51766C11.2355 9.16845 11.3947 8.77553 11.4707 8.36281H7.79822V5.79781H14.2107C14.2895 6.24656 14.3282 6.69657 14.3282 7.15157C14.3282 9.18281 13.5857 10.9016 12.3032 12.0603C11.177 13.0766 9.63447 13.6678 7.79822 13.6678C6.54485 13.6742 5.31401 13.3348 4.2411 12.6868C3.16818 12.0389 2.29478 11.1076 1.71697 9.99531C1.2419 9.06844 0.994141 8.04185 0.994141 7.00031C0.994141 5.95878 1.2419 4.93219 1.71697 4.00532C2.29409 2.89411 3.16629 1.96346 4.23778 1.31558C5.30927 0.667705 6.53859 0.327667 7.79072 0.332816L7.79947 0.334065Z" fill="white"/>
</svg>
