<svg width="100" height="18" viewBox="0 0 100 18" fill="none" xmlns="http://www.w3.org/2000/svg">
<path opacity="0.2" d="M27.8277 14.3608V14.082H27.943V14.0268H27.6546V14.082H27.7676V14.3608H27.8277ZM28.3828 14.3608V14.0244H28.2962L28.1953 14.2647L28.0944 14.0244H28.0055V14.3608H28.068V14.1085L28.1617 14.3271H28.2266L28.3203 14.1061V14.3608H28.3828ZM43.5364 11.9145V8.30991C43.5364 6.94978 42.6689 6.03662 41.2727 6.0246C40.8753 5.99865 40.4782 6.0797 40.1228 6.25932C39.7674 6.43894 39.4666 6.71056 39.2518 7.0459C39.0554 6.72051 38.7751 6.45398 38.4402 6.27428C38.1053 6.09458 37.7282 6.00834 37.3485 6.0246C37.0182 6.00838 36.6893 6.07853 36.3944 6.22812C36.0994 6.37771 35.8485 6.60159 35.6664 6.87769V6.16158H34.4144V11.9145H35.6784V8.72563C35.6784 7.72596 36.2311 7.19729 37.0866 7.19729C37.9421 7.19729 38.3386 7.73798 38.3386 8.71362V11.9145H39.6026V8.72563C39.6026 7.72596 40.1793 7.19729 41.0108 7.19729C41.8423 7.19729 42.2748 7.73798 42.2748 8.71362V11.9145H43.5364ZM62.2394 6.16158H60.1944V4.41696H58.9424V6.16158H57.7745V7.30543H58.9424V9.92716C58.9424 11.2633 59.459 12.0587 60.9393 12.0587C61.4922 12.0607 62.0345 11.9066 62.5037 11.6141L62.1432 10.5423C61.8074 10.7426 61.4262 10.8542 61.0354 10.8668C60.4106 10.8668 60.2064 10.4823 60.2064 9.90553V7.30543H62.2514L62.2394 6.16158ZM72.9161 6.0174C72.611 6.008 72.3091 6.08119 72.0422 6.22924C71.7753 6.37728 71.5533 6.59468 71.3998 6.85846V6.16158H70.1598V11.9145H71.4118V8.68959C71.4118 7.72837 71.8203 7.20931 72.6398 7.20931C72.907 7.20562 73.1724 7.25462 73.4208 7.35349L73.8077 6.17359C73.5214 6.07162 73.22 6.01881 72.9161 6.0174ZM56.7796 6.61816C56.0714 6.1976 55.2574 5.9891 54.4342 6.0174C52.978 6.0174 52.0312 6.71428 52.0312 7.85813C52.0312 8.79773 52.7281 9.37446 54.0161 9.55469L54.6073 9.63879C55.2921 9.73491 55.6166 9.91514 55.6166 10.242C55.6166 10.6865 55.16 10.9388 54.3069 10.9388C53.6167 10.9606 52.9394 10.7489 52.3844 10.3381L51.7957 11.2993C52.5244 11.8098 53.3983 12.0719 54.2877 12.0467C55.9482 12.0467 56.9094 11.2633 56.9094 10.1699C56.9094 9.15818 56.1524 8.62951 54.9004 8.44688L54.3117 8.36277C53.7686 8.29068 53.3361 8.18254 53.3361 7.79806C53.3361 7.41357 53.7446 7.1228 54.4318 7.1228C55.0617 7.13294 55.6787 7.3033 56.2245 7.61783L56.7796 6.61816ZM90.3142 6.0174C90.0089 6.00834 89.7067 6.08165 89.4395 6.22964C89.1723 6.37763 88.9498 6.59484 88.7955 6.85846V6.16158H87.5579V11.9145H88.8075V8.68959C88.8075 7.72837 89.2184 7.20931 90.0355 7.20931C90.3035 7.20543 90.5697 7.25443 90.8189 7.35349L91.2034 6.17359C90.918 6.07143 90.6173 6.01861 90.3142 6.0174ZM74.1801 9.03803C74.1801 10.7826 75.3961 12.0587 77.2488 12.0587C78.0005 12.0964 78.7392 11.8522 79.3203 11.3738L78.7171 10.3621C78.2822 10.6929 77.752 10.8741 77.2056 10.8788C76.2059 10.8788 75.473 10.1579 75.473 9.03803C75.473 7.91821 76.2131 7.2021 77.2056 7.2021C77.7495 7.20832 78.2769 7.38947 78.7099 7.71876L79.313 6.70707C78.732 6.22869 77.9933 5.98446 77.2416 6.0222C75.3889 6.0222 74.1729 7.29822 74.1729 9.04284L74.1801 9.03803ZM85.9022 9.03803V6.15437H84.655V6.85125C84.4415 6.5761 84.165 6.35614 83.849 6.2098C83.5329 6.06346 83.1863 5.99501 82.8383 6.01019C81.2259 6.01019 79.9547 7.27419 79.9547 9.03082C79.9547 10.7875 81.2187 12.0515 82.8383 12.0515C83.186 12.0676 83.5324 12.0001 83.8485 11.8545C84.1646 11.709 84.4412 11.4898 84.655 11.2152V11.9145H85.907L85.9022 9.03803ZM81.2451 9.03803C81.2451 8.02635 81.9059 7.19729 82.9897 7.19729C84.0254 7.19729 84.7223 7.9903 84.7223 9.03803C84.7223 10.0858 84.0254 10.8788 82.9897 10.8788C81.9059 10.8788 81.2451 10.0497 81.2451 9.03803ZM66.1515 6.0174C64.4694 6.0174 63.2871 7.24535 63.2871 9.03803C63.2871 10.8307 64.515 12.0587 66.2356 12.0587C67.0948 12.089 67.935 11.8015 68.5954 11.2512L67.9682 10.3261C67.4905 10.7088 66.8982 10.9203 66.2861 10.9268C65.4811 10.9268 64.7457 10.5544 64.5655 9.51864H68.8381C68.8381 9.36244 68.8622 9.20624 68.8622 9.03803C68.8502 7.24535 67.7423 6.0174 66.1299 6.0174H66.1515ZM66.1275 7.13481C66.9349 7.13481 67.4516 7.64186 67.5837 8.53099H64.5871C64.7193 7.70193 65.224 7.13481 66.1155 7.13481H66.1275ZM97.5306 9.03803V3.84984H96.2786V6.85846C96.0648 6.58361 95.7883 6.36386 95.4723 6.21756C95.1562 6.07125 94.8098 6.00262 94.4619 6.0174C92.847 6.0174 91.5782 7.2814 91.5782 9.03803C91.5782 10.7947 92.8422 12.0587 94.4619 12.0587C94.8101 12.0736 95.1568 12.0047 95.4729 11.858C95.789 11.7112 96.0653 11.4908 96.2786 11.2152V11.9145H97.5306V9.03803ZM98.9916 11.3834C99.042 11.383 99.0918 11.3928 99.1382 11.4122C99.1814 11.4313 99.2212 11.4573 99.256 11.4891C99.2899 11.5228 99.3168 11.5628 99.3353 11.6069C99.3547 11.6516 99.3645 11.6999 99.3641 11.7487C99.3643 11.7974 99.3545 11.8457 99.3353 11.8905C99.3162 11.9335 99.2893 11.9726 99.256 12.0058C99.2219 12.0392 99.182 12.0661 99.1382 12.0851C99.0918 12.1046 99.042 12.1144 98.9916 12.1139C98.9413 12.1141 98.8915 12.1043 98.8451 12.0851C98.801 12.0667 98.761 12.0397 98.7273 12.0058C98.694 11.9726 98.6671 11.9335 98.648 11.8905C98.6288 11.8457 98.619 11.7974 98.6192 11.7487C98.6188 11.6999 98.6286 11.6516 98.648 11.6069C98.6664 11.5628 98.6934 11.5228 98.7273 11.4891C98.7617 11.4567 98.8016 11.4307 98.8451 11.4122C98.8878 11.3945 98.9334 11.3847 98.9796 11.3834H98.9916ZM98.9916 12.0322C99.0296 12.0328 99.0672 12.0254 99.1022 12.0106C99.1357 11.9957 99.1666 11.9754 99.1935 11.9505C99.2189 11.924 99.2393 11.8931 99.2536 11.8592C99.2824 11.7883 99.2824 11.709 99.2536 11.6381C99.2393 11.6043 99.2189 11.5733 99.1935 11.5468C99.1672 11.5211 99.1362 11.5007 99.1022 11.4867C99.0672 11.472 99.0296 11.4646 98.9916 11.4651C98.9537 11.4649 98.9161 11.4722 98.8811 11.4867C98.8469 11.5004 98.8159 11.5209 98.7898 11.5469C98.7638 11.5729 98.7434 11.604 98.7297 11.6381C98.7009 11.709 98.7009 11.7883 98.7297 11.8592C98.7431 11.8935 98.7636 11.9247 98.7898 11.9505C98.8163 11.976 98.8473 11.9963 98.8811 12.0106C98.9124 12.0236 98.9458 12.031 98.9796 12.0322H98.9916ZM99.0133 11.5781C99.0493 11.5751 99.0852 11.5854 99.1142 11.6069C99.126 11.6163 99.1354 11.6284 99.1417 11.6422C99.148 11.656 99.1509 11.6711 99.1502 11.6862C99.1507 11.6992 99.1483 11.7121 99.1434 11.7242C99.1384 11.7362 99.1309 11.747 99.1214 11.7559C99.0988 11.7745 99.0712 11.7862 99.0421 11.7895L99.1526 11.9169H99.0661L98.9628 11.7895H98.9292V11.9169H98.8571V11.5781H99.0133ZM98.9292 11.6405V11.7319H99.0133C99.0282 11.7359 99.044 11.7359 99.0589 11.7319C99.0644 11.7281 99.0688 11.7231 99.0719 11.7172C99.075 11.7114 99.0766 11.7048 99.0766 11.6982C99.0766 11.6916 99.075 11.6851 99.0719 11.6792C99.0688 11.6733 99.0644 11.6683 99.0589 11.6646C99.044 11.6605 99.0282 11.6605 99.0133 11.6646L98.9292 11.6405ZM92.8591 9.03803C92.8591 8.02635 93.5223 7.19729 94.6061 7.19729C95.6394 7.19729 96.3387 7.9903 96.3387 9.03803C96.3387 10.0858 95.6394 10.8788 94.6061 10.8788C93.5223 10.8788 92.8591 10.0497 92.8591 9.03803ZM50.5894 9.03803V6.15437H49.3302V6.85125C49.1163 6.5764 48.8399 6.35665 48.5238 6.21035C48.2078 6.06404 47.8614 5.99541 47.5135 6.01019C45.8986 6.01019 44.6298 7.27419 44.6298 9.03082C44.6298 10.7875 45.8914 12.0515 47.5135 12.0515C47.861 12.0672 48.2073 11.9995 48.5234 11.854C48.8394 11.7085 49.1161 11.4895 49.3302 11.2152V11.9145H50.5822L50.5894 9.03803ZM45.9298 9.03803C45.9298 8.02635 46.5931 7.19729 47.6769 7.19729C48.7102 7.19729 49.4095 7.9903 49.4095 9.03803C49.4095 10.0858 48.7102 10.8788 47.6769 10.8788C46.5931 10.8788 45.9298 10.0497 45.9298 9.03803ZM13.89 16.0333L14.099 16.2063C12.7956 17.0709 11.2821 17.566 9.71969 17.6388C8.15726 17.7116 6.60433 17.3594 5.22613 16.6198C3.84794 15.8802 2.69606 14.7807 1.89307 13.4384C1.09007 12.0962 0.666016 10.5613 0.666016 8.99718C0.666016 7.43305 1.09007 5.89819 1.89307 4.55592C2.69606 3.21365 3.84794 2.1142 5.22613 1.37456C6.60433 0.634918 8.15726 0.282763 9.71969 0.35557C11.2821 0.428378 12.7956 0.923422 14.099 1.78802C14.0293 1.8457 13.9572 1.90097 13.89 1.96104C12.8828 2.83516 12.0751 3.9154 11.5216 5.12869C10.9681 6.34197 10.6817 7.66 10.6817 8.99357C10.6817 10.3272 10.9681 11.6452 11.5216 12.8585C12.0751 14.0717 12.8828 15.152 13.89 16.0261V16.0333ZM20.0129 0.348596C18.3028 0.342809 16.6296 0.846423 15.2068 1.79523L15.4159 1.96825C16.4223 2.8428 17.2293 3.92319 17.7824 5.13642C18.3354 6.34965 18.6216 7.66745 18.6216 9.00078C18.6216 10.3341 18.3354 11.6519 17.7824 12.8651C17.2293 14.0784 16.4223 15.1588 15.4159 16.0333L15.2068 16.2063C16.3313 16.9522 17.6146 17.4247 18.9542 17.5861C20.2939 17.7474 21.6527 17.5932 22.9221 17.1357C24.1915 16.6782 25.3363 15.9301 26.2649 14.9512C27.1936 13.9723 27.8804 12.7897 28.2705 11.498C28.6605 10.2063 28.743 8.84121 28.5114 7.51192C28.2797 6.18262 27.7403 4.92595 26.9363 3.84233C26.1323 2.75871 25.0859 1.87819 23.8808 1.27113C22.6758 0.664079 21.3454 0.347328 19.9961 0.346193L20.0129 0.348596ZM14.6565 2.20135C14.5436 2.29026 14.4354 2.37917 14.3273 2.47289C13.3939 3.28495 12.6455 4.28776 12.1327 5.41367C11.6199 6.53958 11.3545 7.76238 11.3545 8.99958C11.3545 10.2368 11.6199 11.4596 12.1327 12.5855C12.6455 13.7114 13.3939 14.7142 14.3273 15.5263C14.4354 15.62 14.5436 15.7113 14.6565 15.7978C14.7671 15.7113 14.8776 15.62 14.9833 15.5263C15.9167 14.7142 16.6651 13.7114 17.1779 12.5855C17.6908 11.4596 17.9561 10.2368 17.9561 8.99958C17.9561 7.76238 17.6908 6.53958 17.1779 5.41367C16.6651 4.28776 15.9167 3.28495 14.9833 2.47289C14.8776 2.37917 14.7671 2.29026 14.6565 2.20135Z" fill="white"/>
</svg>
