<svg width="18" height="18" viewBox="0 0 18 18" fill="none" xmlns="http://www.w3.org/2000/svg">
<path d="M16.1359 11.6586C15.0951 11.6586 14.0732 11.4958 13.1047 11.1757C12.6302 11.0139 12.0469 11.1624 11.7572 11.4598L9.84575 12.9028C7.62898 11.7195 6.26349 10.3544 5.09633 8.15429L6.49684 6.29262C6.8607 5.92924 6.99121 5.39844 6.83485 4.90039C6.51344 3.92687 6.35017 2.90541 6.35017 1.86416C6.35021 1.11196 5.73826 0.5 4.9861 0.5H1.86412C1.11196 0.5 0.5 1.11196 0.5 1.86412C0.5 10.4859 7.51418 17.5 16.1359 17.5C16.8881 17.5 17.5 16.888 17.5 16.1359V13.0226C17.5 12.2705 16.888 11.6586 16.1359 11.6586Z" fill="#727171" fill-opacity="0.35"/>
</svg>
