<svg width="38" height="13" viewBox="0 0 38 13" fill="none" xmlns="http://www.w3.org/2000/svg">
<path opacity="0.2" d="M27.6316 1.09996C26.7599 0.782352 25.8386 0.622975 24.9109 0.629333C21.9109 0.629333 19.7922 2.14058 19.7772 4.30996C19.7584 5.90371 21.2828 6.80183 22.4359 7.33433C23.6191 7.88183 24.0147 8.22683 24.0109 8.71621C24.0034 9.46058 23.0659 9.79808 22.1941 9.79808C20.9959 9.79808 20.3416 9.63121 19.3347 9.21308L18.9616 9.03871L18.5359 11.5362C19.2653 11.84 20.5797 12.1006 21.9372 12.1231C25.1266 12.1231 27.2116 10.6212 27.2359 8.31308C27.2622 7.03996 26.4372 6.07808 24.7009 5.28308C23.6453 4.76746 22.9909 4.42246 22.9909 3.89933C22.9909 3.43621 23.5516 2.94121 24.7234 2.94121C25.5034 2.92234 26.2785 3.06867 26.9978 3.37058L27.2791 3.49621L27.7047 1.08308L27.6316 1.09996ZM35.4166 0.831833H33.0728C32.3434 0.831833 31.7941 1.03246 31.4753 1.75621L26.9678 11.9675H30.1572L30.7947 10.2931L34.6872 10.2968C34.7791 10.6887 35.0603 11.9675 35.0603 11.9675H37.8728L35.4166 0.831833ZM15.4628 0.738083H18.5022L16.6009 11.8793H13.5653L15.4628 0.734333V0.738083ZM7.74719 6.87871L8.06219 8.42558L11.0322 0.831833H14.2516L9.46844 11.9525H6.25656L3.63156 2.53621C3.58905 2.38094 3.4892 2.24759 3.35219 2.16308C2.40606 1.67434 1.40358 1.30345 0.367188 1.05871L0.408437 0.824332H5.30031C5.96406 0.850582 6.49844 1.05871 6.67656 1.76746L7.74531 6.88433V6.87871H7.74719ZM31.6666 8.01496L32.8778 4.89871C32.8628 4.93246 33.1272 4.25558 33.2809 3.83746L33.4891 4.79933L34.1922 8.01308H31.6647V8.01496H31.6666Z" fill="white"/>
</svg>
