<svg width="26" height="13" viewBox="0 0 26 13" fill="none" xmlns="http://www.w3.org/2000/svg">
<path d="M25.8621 11.7404C25.8306 11.681 25.8013 11.6316 25.774 11.5921C25.3229 10.8801 24.4609 10.0062 23.1884 8.97013L23.1615 8.94641L23.1481 8.93477L23.1345 8.92285H23.1208C22.5433 8.44039 22.1776 8.11599 22.0245 7.94991C21.7442 7.63354 21.6815 7.3133 21.8346 6.98882C21.9428 6.74366 22.3492 6.22593 23.053 5.43491C23.4231 5.01569 23.7163 4.67971 23.9328 4.42657C25.4942 2.60744 26.1711 1.44499 25.9634 0.938763L25.8828 0.820465C25.8286 0.749245 25.6887 0.684092 25.4634 0.624673C25.2375 0.565379 24.9488 0.555573 24.5967 0.595089L20.6981 0.61869C20.635 0.599077 20.5448 0.600905 20.4273 0.624673C20.31 0.648441 20.2513 0.660366 20.2513 0.660366L20.1834 0.690076L20.1295 0.725768C20.0844 0.74937 20.0348 0.79088 19.9806 0.850216C19.9267 0.909344 19.8816 0.978735 19.8455 1.05781C19.4211 2.01479 18.9385 2.90453 18.3969 3.72701C18.063 4.21744 17.7563 4.64248 17.4762 5.00236C17.1965 5.36211 16.9619 5.62717 16.7725 5.79707C16.5828 5.96715 16.4117 6.10339 16.2579 6.20632C16.1045 6.30928 15.9873 6.35279 15.9062 6.33687C15.8249 6.32096 15.7483 6.30517 15.6758 6.28938C15.5495 6.21816 15.448 6.1213 15.3714 5.99872C15.2945 5.87615 15.2427 5.72187 15.2156 5.536C15.1887 5.35002 15.1728 5.19005 15.1682 5.05554C15.164 4.92121 15.1659 4.73119 15.1751 4.48603C15.1845 4.24075 15.1887 4.0748 15.1887 3.98779C15.1887 3.6872 15.1954 3.36098 15.2088 3.00904C15.2225 2.65709 15.2335 2.37824 15.2428 2.17281C15.252 1.96717 15.2562 1.7496 15.2562 1.52024C15.2562 1.29087 15.2403 1.11099 15.2088 0.980439C15.1777 0.850049 15.13 0.723483 15.067 0.600781C15.0037 0.478203 14.9111 0.383382 14.7895 0.316069C14.6677 0.248838 14.5163 0.195485 14.3361 0.155845C13.8577 0.0609823 13.2486 0.00966592 12.5084 0.00168799C10.8299 -0.0141017 9.75134 0.0808854 9.27303 0.286525C9.08351 0.37341 8.91202 0.492123 8.75868 0.642291C8.59619 0.816351 8.57353 0.911339 8.69083 0.926962C9.23239 0.998057 9.61578 1.16813 9.84143 1.43701L9.92274 1.57949C9.98599 1.68229 10.0491 1.86429 10.1124 2.12523C10.1755 2.38618 10.2162 2.67484 10.2341 2.99104C10.2792 3.56849 10.2792 4.06279 10.2341 4.47398C10.1889 4.88535 10.1463 5.20559 10.1055 5.43495C10.0648 5.66432 10.0039 5.85018 9.92274 5.99249C9.84143 6.13485 9.78733 6.22186 9.76021 6.25344C9.73314 6.28502 9.71057 6.30492 9.69264 6.31273C9.57534 6.35212 9.45334 6.37219 9.32708 6.37219C9.20063 6.37219 9.04729 6.31676 8.86683 6.20599C8.68642 6.09521 8.49918 5.94305 8.30511 5.74925C8.11105 5.55541 7.89218 5.28453 7.64843 4.93658C7.40486 4.58863 7.15214 4.17739 6.89042 3.70287L6.67388 3.35874C6.53851 3.13735 6.35359 2.81499 6.11894 2.39195C5.88415 1.96875 5.67661 1.55938 5.4962 1.16393C5.42409 0.997849 5.31575 0.871408 5.17137 0.784398L5.10361 0.748705C5.05857 0.717126 4.98626 0.683593 4.88707 0.647859C4.78774 0.612166 4.68409 0.58657 4.57571 0.570822L0.866541 0.594423C0.487513 0.594423 0.230338 0.669673 0.0949232 0.819966L0.0407288 0.891061C0.0136553 0.93066 0 0.993902 0 1.08095C0 1.16796 0.0270735 1.27475 0.0812679 1.40119C0.622738 2.51644 1.21157 3.59201 1.84778 4.62806C2.48398 5.66411 3.03683 6.49868 3.50599 7.13101C3.97525 7.7638 4.45357 8.36102 4.94094 8.92239C5.42831 9.48396 5.75091 9.84384 5.90875 10.0019C6.06679 10.1603 6.19092 10.2788 6.28115 10.3578L6.61964 10.6425C6.83622 10.8324 7.15428 11.0597 7.57394 11.3246C7.9937 11.5897 8.4584 11.8506 8.9683 12.1079C9.47828 12.3647 10.0716 12.5743 10.7485 12.7364C11.4253 12.8986 12.0841 12.9638 12.7249 12.9323H14.2817C14.5975 12.9084 14.8367 12.8214 14.9992 12.6713L15.0531 12.6118C15.0893 12.5646 15.1232 12.4913 15.1545 12.3926C15.1862 12.2937 15.2019 12.1848 15.2019 12.0664C15.1927 11.7263 15.2222 11.4199 15.2897 11.1471C15.3572 10.8743 15.4341 10.6687 15.5201 10.5302C15.6061 10.3918 15.7031 10.2751 15.8111 10.1804C15.9193 10.0855 15.9964 10.0281 16.0416 10.0083C16.0865 9.9884 16.1224 9.97489 16.1495 9.96679C16.3661 9.90355 16.621 9.9648 16.9146 10.1508C17.2079 10.3367 17.4831 10.5662 17.7404 10.8389C17.9977 11.1119 18.3067 11.4182 18.6676 11.7582C19.0288 12.0984 19.3446 12.3512 19.6152 12.5175L19.8858 12.6599C20.0666 12.7549 20.3012 12.8419 20.5901 12.921C20.8784 13 21.131 13.0198 21.3479 12.9802L24.8133 12.9329C25.1561 12.9329 25.4228 12.8831 25.612 12.7845C25.8015 12.6856 25.9141 12.5767 25.9504 12.4582C25.9867 12.3396 25.9886 12.2051 25.9573 12.0547C25.9252 11.9046 25.8936 11.7997 25.8621 11.7404Z" fill="#262626"/>
</svg>
