<svg width="56" height="56" viewBox="0 0 56 56" fill="none" xmlns="http://www.w3.org/2000/svg">
<path d="M28 0C12.5365 0 0 12.5365 0 28C0 43.4635 12.5365 56 28 56C43.4635 56 56 43.4635 56 28C56 12.5365 43.4635 0 28 0ZM54.1792 28C54.1792 42.4577 42.4593 54.1792 28 54.1792C13.5407 54.1792 1.82079 42.4577 1.82079 28C1.82079 13.5423 13.5423 1.82079 28 1.82079C42.4577 1.82079 54.1792 13.5423 54.1792 28Z" fill="white"/>
<path d="M41.569 16.1204C41.9493 16.5287 42.4975 17.1872 42.8054 17.5873L48.4752 13.9885C48.192 13.6181 47.741 13.055 47.4035 12.6583L43.8129 15.0322L43.5676 15.2429L43.7504 14.9763L45.3357 11.8121L44.2146 10.691L41.0488 12.2763L40.7821 12.4591L40.9945 12.2138L43.3701 8.62489C42.9519 8.26929 42.5502 7.94333 42.0382 7.54822L38.4395 13.2131C38.8955 13.5637 39.4964 14.079 39.88 14.4297L43.268 12.6715L43.4853 12.5118L43.3256 12.7291L41.569 16.1204Z" fill="white"/>
<path d="M28.7051 8.941L30.2543 5.47063L30.353 5.16278L30.3251 5.48381L30.488 10.1214C31.0313 10.1724 31.5927 10.2481 32.1458 10.3403L31.894 3.47205C31.1202 3.38644 30.3497 3.32553 29.5793 3.2926L28.0532 7.0807L27.9989 7.36221L27.9445 7.0807L26.4201 3.2926C25.6496 3.32553 24.8791 3.38644 24.1054 3.47205L23.8535 10.3403C24.4067 10.2481 24.9681 10.1741 25.5113 10.1214L25.6743 5.48381L25.6463 5.16278L25.7451 5.47063L27.2942 8.941H28.7051Z" fill="white"/>
<path d="M16.1743 14.4149C17.0699 13.4716 17.5769 12.3818 16.6813 11.3413C16.194 10.7767 15.3758 10.6532 14.6976 10.9314L14.6301 10.9578L14.6515 10.8985C14.7519 10.6301 14.8161 9.77407 14.0868 9.18306C13.7312 8.89496 13.2851 8.78795 12.834 8.83405C11.9927 8.91965 11.3457 9.49421 9.58421 11.4582C9.05246 12.0509 8.27871 12.986 7.81445 13.5918L12.6529 18.1816C14.2564 16.4069 14.9099 15.7468 16.1743 14.4149ZM9.86079 13.2922C10.8354 12.1003 11.8709 11.0187 12.3401 10.5906C12.4883 10.4556 12.6496 10.3206 12.8455 10.268C13.1632 10.1807 13.4908 10.4062 13.5649 10.7322C13.639 11.0598 13.4332 11.371 13.2044 11.6278C12.6891 12.2089 10.7992 14.1861 10.7992 14.1861L9.86079 13.2922ZM11.7557 15.0899C11.7557 15.0899 13.5962 13.144 14.1971 12.5217C14.4358 12.2748 14.5889 12.125 14.7535 12.0443C14.9659 11.9406 15.198 11.9192 15.4055 12.0575C15.6096 12.1941 15.7035 12.4295 15.6524 12.6633C15.5915 12.9415 15.3643 13.2066 15.1766 13.4091C14.9231 13.6807 12.7401 16.0168 12.7368 16.0201L11.7557 15.0899Z" fill="white"/>
<path d="M44.6044 28.0001H28V11.3956C37.1764 11.3956 44.6044 18.8237 44.6044 28.0001Z" fill="white"/>
<path d="M28.0009 28V44.6044C18.8245 44.6044 11.3965 37.1764 11.3965 28H28.0009Z" fill="white"/>
<path d="M28.0009 11.3956V28.0001H11.3965C11.3965 18.8237 18.8245 11.3956 28.0009 11.3956Z" fill="#0066B1"/>
<path d="M44.6044 28C44.6044 37.1764 37.1764 44.6044 28 44.6044V28H44.6044Z" fill="#0066B1"/>
</svg>
